<svg xmlns="http://www.w3.org/2000/svg" version="1.1" xmlns:xlink="http://www.w3.org/1999/xlink" width="250" height="250" x="0" y="0" viewBox="0 0 90 90" xml:space="preserve" class=""><g><path fill="#1c85e8" d="M10.33 5.234c-4.422.125-5.125 6.795-.844 7.958l5.583 1.971 6.568 34.245c.786 4.098 2.088 7.807 3.905 10.998 2.672 4.699 7.308 8.167 13.037 8.167h28.427c5.13.093 5.13-8.116 0-8.015H38.58c-4.047-.522-5.725-2.561-7.209-5.55h37.521c3.442 0 5.364-3.056 6.213-6.591l8.208-27.92c.438-4.59-1.994-5.496-6.25-5.496l-53.905.041-1.448-4.428c-.391-1.318-1.391-2.336-2.646-2.69z" opacity="1" data-original="#1c85e8" class=""></path><path fill="#00d1a4" d="M40.518 72.662a6.088 6.088 0 0 0 0 12.176 6.082 6.082 0 0 0 6.078-6.085c0-3.364-2.719-6.091-6.078-6.091zM64.757 72.662c-3.354 0-6.078 2.727-6.078 6.091a6.085 6.085 0 0 0 6.078 6.085 6.086 6.086 0 0 0 6.083-6.085 6.087 6.087 0 0 0-6.083-6.091z" opacity="1" data-original="#00d1a4"></path><path fill="#1c65e8" d="M10.33 5.234c-4.422.125-5.125 6.795-.844 7.958l5.583 1.971 6.568 34.245c.786 4.098 2.088 7.807 3.905 10.998 2.672 4.699 7.313 8.167 13.037 8.167h28.427c5.13.093 5.13-8.116 0-8.021H38.58c-4.047-.516-5.725-2.555-7.209-5.544h31.756c-13.209-4.38-22.74-16.833-22.745-31.528a33.48 33.48 0 0 1 1.089-8.453l-18.313.016-1.448-4.428c-.391-1.318-1.391-2.336-2.646-2.69z" opacity="1" data-original="#1c65e8"></path><path fill="#ffffff" d="M50.158 35.694c-4.381 0-8.693 1.913-12.375 5.438-1.49 1.387-.542 3.88 1.489 3.932a2.253 2.253 0 0 0 1.636-.646c3.01-2.883 6.166-4.183 9.25-4.183 3.088 0 6.25 1.299 9.26 4.183a2.273 2.273 0 0 0 3.281 0 2.283 2.283 0 0 0-.15-3.286c-3.688-3.525-8.006-5.438-12.391-5.438zm9.447-8.944a3.283 3.283 0 0 0-3.281 3.285c0 1.815 1.469 3.285 3.281 3.285s3.287-1.47 3.287-3.285a3.287 3.287 0 0 0-3.287-3.285zm-18.884 0a3.284 3.284 0 1 0-.005 6.569 3.284 3.284 0 0 0 .005-6.569z"  data-original="#ffffff" class=""></path></g></svg>